# xmcd CD database file
#
# Track frame offsets:
#	150
#	12634
#	25500
#	38689
#	50680
#	67590
#	78427
#	90482
#	106775
#	119362
#	132035
#	144990
#
# Disc length: 2087 seconds
#
# Revision: 0
# Processed by: cddbd v1.5.2PL0 Copyright (c) Steve Scherf et al.
# Submitted via: CDex 1.70beta2
#
DISCID=8a08250c
DTITLE=Merle Haggard - American Classics Vol2
DYEAR=2004
DGENRE=Country
TTITLE0=Okie From Muskogee 
TTITLE1=It's Been A Great Afternoon
TTITLE2=The Fightin' Side Of Me
TTITLE3=Carolyn 
TTITLE4=Daddy Frank(The Guitar Man)
TTITLE5=Someday We' ll Look Back
TTITLE6=Turnin' Off A Memory
TTITLE7=It's Not Love(But It's Not Bad)
TTITLE8=Everybody's Had The Blues
TTITLE9=If We Make It Through December
TTITLE10=The Emptiest Arms In The World
TTITLE11=From Graceland To The Promised Land
EXTD=YEAR: 2004
EXTT0=
EXTT1=
EXTT2=
EXTT3=
EXTT4=
EXTT5=
EXTT6=
EXTT7=
EXTT8=
EXTT9=
EXTT10=
EXTT11=
PLAYORDER=
